<?xml version="1.0" encoding="UTF-8"?>
<!DOCTYPE svg PUBLIC "-//W3C//DTD SVG 1.1//EN" "http://www.w3.org/Graphics/SVG/1.1/DTD/svg11.dtd">
<!-- Creator: CorelDRAW X8 -->
<svg xmlns="http://www.w3.org/2000/svg" xml:space="preserve" width="1.5in" height="1.502in" version="1.1" shape-rendering="geometricPrecision" text-rendering="geometricPrecision" image-rendering="optimizeQuality" fill-rule="evenodd" clip-rule="evenodd"
viewBox="0 0 1500 1502"
 xmlns:xlink="http://www.w3.org/1999/xlink">
 <defs>
     <linearGradient id="id0" gradientUnits="userSpaceOnUse" x1="435.512" y1="218.85" x2="1314.48" y2="1096.19">
      <stop offset="0" stop-opacity="1" stop-color="#FCFF52"/>
      <stop offset="0.380392" stop-opacity="1" stop-color="#F6BF36"/>
      <stop offset="1" stop-opacity="1" stop-color="#EF7F1A"/>
     </linearGradient>
     <linearGradient id="id1" gradientUnits="userSpaceOnUse" x1="232.075" y1="982.028" x2="531.512" y2="1286.64">
      <stop offset="0" stop-opacity="1" stop-color="#FCFF52"/>
      <stop offset="0.380392" stop-opacity="1" stop-color="#F6BF36"/>
      <stop offset="1" stop-opacity="1" stop-color="#EF7F1A"/>
     </linearGradient>
 </defs>
 <g id="Layer_x0020_1">
  <metadata id="CorelCorpID_0Corel-Layer"/>
  <g id="_2336930239168">
   <path fill="#5B5B5B" d="M0 700l20 231c3,15 9,19 14,41 8,36 28,73 42,111 6,15 16,21 30,25l47 -74c0,-54 -8,-33 -19,-74 -18,-72 -37,-127 -37,-213 0,-60 12,-129 31,-182 3,-8 4,-13 5,-19 5,-23 37,-94 49,-113 76,-119 157,-212 296,-273l120 -42c52,-7 90,-20 143,-20 101,0 93,21 153,-18 39,-25 52,-19 60,-51 -25,-12 -47,-8 -77,-16 -65,-17 -185,-18 -250,-1 -25,6 -52,5 -74,14 -35,14 -46,12 -66,23 -32,16 -77,24 -145,72l-51 37c-9,7 -17,13 -26,21 -64,54 -117,115 -159,188 -21,37 -58,107 -69,148l-25 109c-5,28 -12,46 -12,76z"/>
   <path fill="#5B5B5B" d="M412 1423c14,3 21,5 34,12l145 50c15,3 29,2 45,5 92,14 127,17 220,1 27,-4 51,-4 75,-12 89,-31 104,-27 200,-83 6,-4 9,-5 15,-8l93 -69c1,-1 2,-2 2,-2 54,-50 114,-111 149,-176 0,-1 1,-2 1,-3l90 -215c20,-130 19,-76 19,-223 0,-38 -10,-67 -23,-92l-72 108c-6,19 -1,43 -2,63 -3,33 -12,76 -17,108 -12,74 -60,173 -103,235 -21,31 -44,61 -71,86l-56 51c-7,6 -1,1 -10,8 -7,5 -11,7 -17,11l-56 37c-50,28 -126,61 -179,71 -101,19 -170,16 -272,2 -40,-5 -29,-7 -50,-14 -21,-7 -27,-4 -47,-13 -37,-17 -32,6 -79,31 -16,8 -25,17 -34,31z"/>
   <g>
    <path fill="url(#id0)" d="M255 858c0,40 29,37 60,37 23,0 46,-2 66,-13l37 -14c23,-13 41,-36 41,13 -1,38 -10,32 9,55 34,41 86,88 125,125l5 4c24,20 44,13 70,6 21,-5 12,-1 36,0l-33 50c-11,30 -19,29 -23,65 -5,52 -28,93 42,93 54,0 103,-19 145,-49l59 -48c21,-21 41,-48 55,-74 32,-55 42,-90 42,-158 20,-1 33,-17 49,-29l212 -187c0,0 1,-1 2,-2l83 -107c0,-1 1,-2 2,-3l4 -5c7,-9 8,-15 16,-26l37 -64c20,-33 45,-91 54,-127 4,-17 6,-13 13,-29 4,-12 4,-19 6,-34 4,-17 5,-19 11,-32 9,-24 5,-41 9,-70 8,-53 9,-105 1,-159 -9,-54 -86,-38 -171,-38l-349 118c-9,5 -8,6 -17,12l-14 8c-1,0 -2,1 -3,2 -86,58 -135,97 -206,169 -50,50 -70,81 -111,134 -7,9 -8,11 -13,20 -1,0 -2,1 -2,2 -1,1 -3,4 -4,6 -2,2 -4,6 -6,8 -19,33 -30,22 -80,35 -25,6 -36,4 -57,17l-64 39c0,0 -1,1 -2,2l-17 11c-34,27 -57,61 -80,96 -1,1 -5,7 -6,8l-14 32c-12,20 -19,73 -19,101z"/>
    <path fill="url(#id1)" d="M296 1112c0,0 2,-1 2,-1l-2 1zm-97 56c29,0 32,-7 63,-30 29,-23 7,-8 34,-21 -1,21 -21,39 -32,56l-88 134c-12,16 -9,10 -9,37 1,0 9,2 10,2 11,0 11,-4 17,-7 1,0 2,-1 3,-1 1,-1 2,-1 3,-2l13 -6c8,-4 0,0 9,-5l69 -42c8,-4 11,-5 19,-9l61 -36c15,-7 38,-28 42,-14 3,12 2,-2 -2,6l-6 8c-26,43 -30,78 24,35 22,-17 40,-33 61,-50 25,-21 100,-83 107,-115l-45 -48c-17,-18 -131,-137 -145,-137 -33,0 -69,54 -93,82l-95 123c-23,34 -8,15 -20,40z"/>
   </g>
  </g>
 </g>
</svg>
